<svg xmlns="http://www.w3.org/2000/svg" width="14" height="14" viewBox="0 0 14 14">
    <g fill="none" fill-rule="evenodd">
        <path fill="#EA4335" d="M9.707 3.749l1.975-1.929C10.47.692 8.89 0 7 0 4.262 0 1.898 1.571.747 3.858L3.01 5.616c.568-1.688 2.139-2.91 3.99-2.91 1.314 0 2.201.568 2.707 1.043z"/>
        <path fill="#4285F4" d="M13.572 5.724H7v2.598h3.858c-.078.646-.498 1.618-1.431 2.271l2.209 1.711c1.322-1.22 2.084-3.017 2.084-5.148 0-.576-.047-.996-.148-1.432z"/>
        <path fill="#FBBC05" d="M2.784 7c0-.482.086-.949.226-1.384L.747 3.858C.272 4.807 0 5.872 0 7c0 1.128.272 2.193.747 3.142l2.27-1.758C2.87 7.95 2.785 7.482 2.785 7z"/>
        <path fill="#34A853" d="M11.636 12.304l-2.21-1.71c-.59.412-1.384.7-2.426.7-1.851 0-3.422-1.222-3.982-2.91L.754 10.142C1.906 12.43 4.262 14 7 14c1.89 0 3.477-.622 4.636-1.696z"/>
    </g>
</svg>
