<svg xmlns="http://www.w3.org/2000/svg" width="15" height="12" viewBox="0 0 15 12">
    <path fill="#1DA1F2" fill-rule="evenodd" d="M4.636 12c5.569 0 8.616-4.618 8.616-8.616 0-.13 0-.26-.006-.39a6.17 6.17 0 0 0 1.512-1.57 6.137 6.137 0 0 1-1.742.478A3.046 3.046 0 0 0 14.35.224a6.024 6.024 0 0 1-1.925.733A3.023 3.023 0 0 0 10.217 0a3.032 3.032 0 0 0-2.953 3.72A8.6 8.6 0 0 1 1.022.556 3.036 3.036 0 0 0 1.96 4.6a3.063 3.063 0 0 1-1.37-.377v.04a3.035 3.035 0 0 0 2.427 2.971c-.254.071-.52.107-.797.107-.195 0-.384-.018-.567-.054A3.028 3.028 0 0 0 4.482 9.39 6.074 6.074 0 0 1 .72 10.689c-.242 0-.484-.012-.72-.041A8.615 8.615 0 0 0 4.636 12"/>
</svg>
